<svg class="prefix__icon" viewBox="0 0 1024 1024" fill="red" xmlns="http://www.w3.org/2000/svg" >
    <path
        d="M319.97 836.51c-29.4 0-58.8-11.19-81.19-33.58-21.69-21.69-33.63-50.52-33.63-81.19s11.94-59.5 33.63-81.19l171.29-171.29c3.88-3.88 5.54-9.32 4.43-14.56-15.69-74.39 6.99-150.86 60.69-204.55 24.82-24.82 54.18-43 87.26-54.03 31.53-10.51 65.67-13.88 98.75-9.76 12.37 1.54 22.57 9.83 26.62 21.62 4.05 11.8 1.09 24.61-7.73 33.44l-36.79 36.79a16.891 16.891 0 00-4.36 16.29l19.4 72.4a23.367 23.367 0 0016.48 16.48l72.39 19.4c5.8 1.55 12.04-.12 16.29-4.36l36.79-36.79c8.82-8.82 21.63-11.78 33.44-7.73 11.8 4.05 20.08 14.25 21.62 26.62 4.13 33.07.75 67.22-9.76 98.75-11.03 33.08-29.21 62.44-54.03 87.26-53.69 53.69-130.16 76.38-204.55 60.69-5.24-1.1-10.68.55-14.56 4.43L401.16 802.94c-22.38 22.38-51.79 33.58-81.19 33.58zm313.05-621.9c-51.12 0-99.88 20.02-136.61 56.76-46.49 46.49-66.13 112.71-52.54 177.14 3.21 15.2-1.49 30.89-12.57 41.97L260.01 661.77c-16.02 16.02-24.84 37.32-24.84 59.97s8.82 43.95 24.84 59.97 37.32 24.84 59.97 24.84 43.95-8.82 59.97-24.84l171.29-171.29c11.08-11.08 26.77-15.78 41.97-12.57 64.43 13.59 130.65-6.05 177.14-52.54 42.56-42.56 62.69-101.27 55.23-161.09-.05-.36-.18-1.47-1.6-1.96-1.42-.49-2.22.31-2.48.57l-36.79 36.79c-11.8 11.8-29.14 16.45-45.26 12.13l-72.39-19.4c-18.34-4.91-32.78-19.36-37.7-37.69l-19.4-72.4c-4.32-16.12.33-33.46 12.13-45.26l36.79-36.79c.26-.26 1.06-1.06.57-2.48-.48-1.41-1.59-1.55-1.96-1.6-8.19-1.02-16.36-1.53-24.47-1.53z" />
</svg>
