<svg width="24" height="24" viewBox="0 0 24 24" fill="none" xmlns="http://www.w3.org/2000/svg">
<path fill-rule="evenodd" clip-rule="evenodd" d="M19 3.5H5C3.61929 3.5 2.5 4.61929 2.5 6V14C2.5 15.3807 3.61929 16.5 5 16.5H19C20.3807 16.5 21.5 15.3807 21.5 14V6C21.5 4.61929 20.3807 3.5 19 3.5ZM5 2C2.79086 2 1 3.79086 1 6V14C1 16.2091 2.79086 18 5 18H19C21.2091 18 23 16.2091 23 14V6C23 3.79086 21.2091 2 19 2H5Z" fill="#333333"/>
<path fill-rule="evenodd" clip-rule="evenodd" d="M3.25 21.5C3.25 21.0858 3.58579 20.75 4 20.75H20C20.4142 20.75 20.75 21.0858 20.75 21.5C20.75 21.9142 20.4142 22.25 20 22.25H4C3.58579 22.25 3.25 21.9142 3.25 21.5Z" fill="#333333"/>
<path fill-rule="evenodd" clip-rule="evenodd" d="M18.5068 6.44714C18.8122 6.72703 18.8328 7.20146 18.5529 7.5068L13.0529 13.5068C12.9037 13.6696 12.6903 13.7583 12.4697 13.7494C12.2491 13.7405 12.0436 13.6348 11.908 13.4605L9.00003 9.72162L6.09205 13.4605C5.83775 13.7874 5.36654 13.8463 5.03958 13.592C4.71262 13.3377 4.65372 12.8665 4.90802 12.5395L8.40802 8.03955C8.55011 7.85686 8.76859 7.75 9.00003 7.75C9.23148 7.75 9.44996 7.85686 9.59205 8.03955L12.547 11.8388L17.4472 6.49321C17.7271 6.18787 18.2015 6.16724 18.5068 6.44714Z" fill="#333333"/>
</svg>
